<?xml version="1.0" encoding="UTF-8" standalone="no"?>
<!-- Generator: Adobe Illustrator 16.0.0, SVG Export Plug-In . SVG Version: 6.00 Build 0)  -->

<svg
   xmlns:dc="http://purl.org/dc/elements/1.1/"
   xmlns:cc="http://creativecommons.org/ns#"
   xmlns:rdf="http://www.w3.org/1999/02/22-rdf-syntax-ns#"
   xmlns:svg="http://www.w3.org/2000/svg"
   xmlns="http://www.w3.org/2000/svg"
   xmlns:sodipodi="http://sodipodi.sourceforge.net/DTD/sodipodi-0.dtd"
   xmlns:inkscape="http://www.inkscape.org/namespaces/inkscape"
   version="1.1"
   id="Layer_1"
   x="0px"
   y="0px"
   width="1236.8809"
   height="376.25473"
   viewBox="0 0 1236.8808 376.25471"
   enable-background="new 0 0 841.89 595.28"
   xml:space="preserve"
   inkscape:version="0.91 r13725"
   sodipodi:docname="logo.svg"><metadata
     id="metadata41"><rdf:RDF><cc:Work
         rdf:about=""><dc:format>image/svg+xml</dc:format><dc:type
           rdf:resource="http://purl.org/dc/dcmitype/StillImage" /><dc:title /></cc:Work></rdf:RDF></metadata><defs
     id="defs39" /><sodipodi:namedview
     pagecolor="#ffffff"
     bordercolor="#666666"
     borderopacity="1"
     objecttolerance="10"
     gridtolerance="10"
     guidetolerance="10"
     inkscape:pageopacity="0"
     inkscape:pageshadow="2"
     inkscape:window-width="1918"
     inkscape:window-height="1078"
     id="namedview37"
     showgrid="false"
     fit-margin-top="0"
     fit-margin-left="0"
     fit-margin-right="0"
     fit-margin-bottom="0"
     inkscape:zoom="0.38722398"
     inkscape:cx="937.06095"
     inkscape:cy="-132.61549"
     inkscape:window-x="1920"
     inkscape:window-y="0"
     inkscape:window-maximized="0"
     inkscape:current-layer="Layer_1" /><path
     d="m 937.14076,292.71247 c 5.744,3.288 5.874,0.357 5.733,-3.567 -0.32,-8.967 0.097,-17.953 -1.18,-26.896 -0.327,-2.293 0.586,-4.733 0.538,-7.1 -0.226,-11.141 -0.516,-22.279 -0.916,-33.415 -0.671,-18.654 -1.016,-37.336 -2.36,-55.944 -0.622,-8.604 -1.051,-17.289 -1.811,-25.89 -0.681,-7.71 -0.645,-15.742 -1.137,-23.58 -0.508,-8.087 -1.023,-16.211 -1.997,-24.305999 -0.773,-6.44 -0.826,-13.149 -1.243,-19.734 -0.126,-1.979 -0.903,-3.973 -0.734,-5.903 0.412,-4.711 -2.65,-5.105 -5.612,-4.139 -3.06,0.997 -5.717,2.244 -8.973,0.673 -4.487,-2.167 -8.202,1.573 -12.347,2.232 -7.662,1.218 -15.235,1.003 -22.873,1.249 -2.104,0.067 -5.027,1.365 -6.93,0.849 -5.439,-1.477 -10.855,2.315 -15.574,0.345 -3.679,-1.536 -5.744,1.998 -9.24,0.753 -2.643,-0.94 -3.912,-2.125 -4.155,-4.231 -1.513,-13.158 -3.932,-26.186 -5.33,-39.376 -0.637,-6 0.671,-7.388 5.97,-7.766 1.065,-0.076 3.177,-0.188 4.261,-1.907 0.938,-1.488 2.805,-1.5 3.705,0.02 2.873,4.847 7.415,3.176 11.127,2.452 2.378,-0.464 4.15,-1.179 6.806,-0.376 4.864,1.47 10.143,0.191 15.022,-0.327 11.217,-1.191 22.394,-0.227 33.557,-0.809 14.348,-0.749 28.712,-1.564 42.97,-3.21 2.375,-0.274 7.223,-2.534 7.91,-2.153 3.725,2.061 7.207,-0.121 10.70004,0.41 1.92,0.291 4.407,0.976 5.686,-1.7 0.15,-0.313 0.899,-0.653 1.199,-0.537 7.645,2.952 14.687,-1.176 21.986,-1.986 3.336,-0.37 6.747,0.719 9.986,-0.704 7.6,-3.338 15.987,0.265 23.651,-2.678 7.579,-2.90999991 15.667,-2.50299991 23.545,-3.42599991 3.94,-0.461 5.773,3.65499991 5.884,7.37999991 0.101,3.375 0.696,7.101 1.71,10.589 2.562,8.821 6.389,17.16 9.577,25.739 0.878,2.365 0.427,3.294 -2.071,3.504 -4.057,0.342 -8.146,0.604 -11.726,2.963 -0.647,0.428 -1.591,0.675 -2.364,0.609 -11.243,-0.955 -22.227,1.176 -33.288,2.542 -1.765,0.218 -2.453,0.906 -3.416,2.053 -1.048,1.247 -2.879,2.763 -4.073,0.69 -1.584,-2.75 -3.124,-1.544 -5.307,-1.207 -10.93,1.688 -21.907,3.094 -33,3.231 -9.213,0.114 -10.471,1.295 -8.752,10.202 0.658,3.415 0.485,6.817 1.092,10.121 1.574,8.563 1.87,17.394 2.199,25.874999 0.413,10.701 0.539,21.62 1.466,32.226 0.839,9.607 -1.179,19.393 1.978,29.004 0.95,2.895 -0.271,7.194 -0.383,10.872 -0.062,2.054 -1.454,3.848 1.772,4.277 0.13,0.017 0.34,0.325 0.336,0.329 -3.864,4.055 4.425,7.731 0.186,12.517 -1.522,1.718 -0.913,6.519 -0.586,9.729 1.015,9.959 0.248,19.948 1.048,29.885 0.285,3.54 0.071,7.228 1.688,10.545 1.037,2.13 -1.299,3.342 -1.061,5.489 0.997,9.015 1.999,18.152 1.882,27.128 -0.13,9.883 1.748,19.689 0.537,29.604 -0.395,3.231 -1.645,3.364 -4.021,3.058 -9.865,-1.276 -19.70004,-2.794 -29.35204,-5.179 -4.09,-1.011 -8.541,-0.483 -12.306,-2.858 -0.267,-0.168 -0.639,-0.227 -0.964,-0.235 -2.079,-0.061 -8.161,-3.449 -9.314,-5.191 -0.18,-0.271 -0.513,-0.446 -0.683,-0.723 -0.154,-0.256 -0.186,-0.587 -0.628,-2.091 z"
     id="path3"
     inkscape:connector-curvature="0"
     style="clip-rule:evenodd;fill-rule:evenodd;fill:#ffffff" /><path
     d="m 1165.0758,119.56247 c -5.176,-4.881 -11.613,-2.355 -17.226,-2.061 -9.08,0.477 -18.204,0.628 -27.281,1.518 -7.095,0.694 -14.365,-0.467 -21.17,2.878 -1.611,0.792 -4.044,0.705 -5.849,0.176 -9.559,-2.804 -19.05,0.856 -28.668,0.386 -5.648,-0.276 -12.218,-1.619 -18.073,0.965 -0.305,0.135 -0.723,0.444 -0.912,0.343 -4.303,-2.291 -8.525,0.904 -12.979,0.114 -3.276,-0.581 -3.643,-2.496 -3.932,-4.521 -2.01,-14.082 -3.766,-28.197999 -5.746,-42.283999 -0.464,-3.298 1.91,-3.593 3.848,-3.883 2.576,-0.386 5.161,-0.151 7.119,-2.473 0.951,-1.129 2.694,-1.141 3.417,0.193 2.127,3.926 5.959,3.418 8.812,2.584 7.447,-2.179 14.807,0.617 22.188,-0.436 4.053,-0.578 8.195,-0.007 12.202,-1.653 2.583,-1.061 5.673,0.171 8.298,0.352 6.567,0.451 12.662,-2.103 19.418,-1.356 5.456,0.603 11.908,1.225 17.671,-1.254 1.183,-0.507 2.846,0.215 4.277,0.153 11.85,-0.511 23.713,-0.927 35.55,-1.532 9.814,-0.501 19.69,-1.421 29.595,-1.438 9.069,-0.017 18.223,-0.719 27.293,-1.53 2.386,-0.213 2.849,0.218 3.118,1.957 0.616,3.969 0.107,8.391 2.19,11.784 3.183,5.181 2.094,10.814 2.903,16.224 0.287,1.914 1.748,3.21 1.906,5.023 0.249,2.842999 2.231,4.622999 3.836,6.648999 -4.177,0.679 -1.597,3.402 -1.577,5.316 0.016,1.65 -0.59,2.277 -2.338,2.313 -5.504,0.114 -11.004,0.615 -16.504,0.603 -5.341,-0.013 -10.708,1.225 -15.805,1.108 -6.355,-0.146 -12.648,0.538 -18.972,0.423 -4.439,-0.08 -8.896,1.062 -13.335,0.057 -3.001,-0.678 -1.566,2.803 -3.274,3.302 z"
     id="path5"
     inkscape:connector-curvature="0"
     style="clip-rule:evenodd;fill-rule:evenodd;fill:#ffffff" /><path
     d="m 1225.4068,267.46447 c 1.687,2.868 0.127,7.577 5.38,8.6 1.172,0.228 0.542,3.073 -1.338,3.854 -4.123,1.711 -3.781,4.767 -2.676,8.163 0.887,2.726 0.895,3.907 -2.968,4.651 -4.364,0.841 -8.314,3.152 -12.696,0.387 -0.118,-0.075 -0.34,-0.05 -0.491,-10e-4 -9.65,3.112 -19.765,0.561 -29.577,2.575 -10.813,2.22 -22.023,-0.135 -32.851,1.557 -6.509,1.017 -13.424,1.475 -19.398,0.957 -7.804,-0.677 -15.487,0.514 -23.251,-0.282 -9.177,-0.939 -18.545,0.139 -27.827,0.021 -2.733,-0.034 -3.26,2.65 -5.22,3.145 -3.137,0.791 -0.533,-3.87 -2.851,-3.461 -6.263,1.104 -12.547,0.094 -18.797,0.586 -0.784,0.062 -0.49,2.064 -1.976,1.371 1.111,-8.214 0.942,-8.571 -4.528,-8.774 3.495,-3.372 3.526,-7.296 3.534,-11.724 0.018,-9.033 -0.164,-18.046 -0.737,-27.049 -0.165,-2.576 0.733,-2.833 3.007,-3.044 10.653,-0.989 21.314,-0.338 31.967,-0.566 7.404,-0.159 14.938,0.983 22.114,0.154 8.713,-1.007 17.363,0.938 25.764,-0.402 8.089,-1.291 16.2,0.006 24.303,-1.656 3.169,-0.65 7.296,-1.016 11.048,-0.148 1.897,0.438 4.904,1.406 5.012,-2.617 0.024,-0.889 1.626,-1.142 2.021,-0.578 3.629,5.171 8.555,1.347 12.778,1.718 3.386,0.297 6.972,-0.983 10.381,-1.895 1.988,-0.53 3.612,-0.098 5.534,0.183 3.213,0.469 7.356,0.98 8.541,-3.973 0.295,-1.232 0.983,-2.811 2.637,-0.95 0.587,0.528 1.59,0.057 2.063,0.858 -1.531,6.85 4.072,11.358 5.938,17.097 0.823,2.528 0.5,5.851 2.967,7.858 1.157,0.852 2.692,1.46 2.193,3.385 z"
     id="path7"
     inkscape:connector-curvature="0"
     style="clip-rule:evenodd;fill-rule:evenodd;fill:#ffffff" /><path
     d="m 591.74076,61.633471 c 2.699,3.702 5.999,4.295 9.757,4.823 15.896,2.232 31.974,1.903 47.884,3.761 2.954,0.346 5.906,0.758 8.871,0.945 2.563,0.161 3.425,2.153 2.807,3.745 -4.562,11.758 -4.46,24.021 -4.488,36.311999 -0.013,5.733 -2.924,7.157 -8.441,5.502 -6.233,-1.87 -12.386,-3.462 -19.328,-3.164 -6.092,0.262 -12.57,-1.802 -18.925,-2.079 -17.949,-0.784 -35.684,-3.823 -53.632,-4.705 -13.676,-0.671 -27.227,-2.985 -40.898,-4.11 -8.241,-0.679 -16.619,-1.4 -24.843,-2.791999 -1.775,-0.3 -3.425,-0.175 -4.748,0.710999 -2.096,1.406 -4.038,4.078 -4.598,-1.059999 -0.074,-0.68 -1.395,-0.671 -2.211,-0.334 -4.94,2.043999 -6.366,0.185 -5.95,-4.807 1.005,-12.064 0.55,-24.246 3.111,-36.188 0.444,-2.072 0.565,-2.782 3.343,-2.421 7.445,0.965 15.001,1.173 22.521,1.419 5.767,0.189 11.479,0.472 16.996,2.348 0.465,0.158 1.152,0.437 1.437,0.235 4.869,-3.436 9.863,0.186 14.594,0.391 7.112,0.31 14.425,1.32 21.605,2.41 7.459,1.134 15.003,2.042 22.525,1.409 3.067,-0.259 5.292,1.167 7.911,1.794 2.962,0.71 5.845,1.131 4.7,-4.145 z"
     id="path9"
     inkscape:connector-curvature="0"
     style="clip-rule:evenodd;fill-rule:evenodd;fill:#ffffff" /><path
     d="m 481.46976,129.72747 c 6.263,0.648 11.929,1.092 17.541,1.912 1.538,0.225 2.049,-0.66 2.892,-1.264 0.746,-0.534 1.205,-1.742 2.371,-0.664 4.554,4.208 10.556,3.353 15.872,3.807 5.833,0.497 11.643,1.621 17.547,1.489 13.692,-0.305 27.139,2.564 40.767,3.259 14.393,0.735 28.757,2.642 43.138,2.694 5.554,0.021 10.908,0.533 16.359,1.044 2.607,0.243 3.285,1.151 3.357,3.664 0.35,12.305 0.797,24.611 1.447,36.903 0.196,3.702 -0.783,5.141 -4.665,4.603 -6.166,-0.855 -12.38,-1.369 -18.575,-2.026 -0.165,-0.018 -0.361,-0.101 -0.492,-0.04 -7.878,3.627 -15.497,-0.889 -23.125,-1.413 -13.964,-0.959 -28.137,-1.239 -41.954,-4.25 -2.093,-0.456 -4.309,-0.538 -6.461,-0.486 -11.442,0.28 -22.806,-0.741 -34.164,-1.895 -4.863,-0.494 -9.7,0.333 -14.593,0.164 -5.344,-0.185 -10.127,-2.692 -15.541,-2.427 -3.383,0.166 -3.97,-2.966 -3.455,-5.906 1.998,-11.381 1.669,-23.063 4.427,-34.34 0.53,-2.17 -1.231,-3.038 -2.693,-4.828 z"
     id="path11"
     inkscape:connector-curvature="0"
     style="clip-rule:evenodd;fill-rule:evenodd;fill:#ffffff" /><path
     d="m 469.39876,266.52047 c 1.226,-5.222 -0.862,-10.615 -0.784,-16.098 0.084,-5.971 0.328,-11.944 0.699,-17.904 0.183,-2.938 8.616,-5.031 12.074,-3.001 3.145,1.847 6.219,3.418 9.765,0.933 0.285,-0.199 0.913,-0.044 1.33,0.099 10.632,3.623 21.651,3.147 32.652,3.677 5.006,0.241 10.157,0.72 15.227,1.225 4.577,0.456 9.206,0.357 13.793,0.741 7.699,0.645 15.475,-0.296 23.139,1.383 3.487,0.764 8.281,-1.4 10.172,-0.619 3.828,1.581 7.431,0.79 11.016,1.541 1.766,0.37 3.723,1.057 5.347,0.64 4.899,-1.258 7.609,2.806 11.152,4.485 2.104,0.997 0.829,4.611 -0.407,6.305 -4.083,5.591 -4.998,12.039 -6.66,18.482 -1.212,4.699 -2.77,9.605 -4.919,14.08 -1.939,4.039 -7.021,3.105 -9.192,2.117 -4.836,-2.201 -9.891,-1.943 -14.555,-2.137 -11.352,-0.472 -22.633,-1.549 -33.945,-2.386 -15.612,-1.156 -31.239,-2.111 -46.86,-3.147 -7.583,-0.504 -15.204,-0.688 -22.736,-1.599 -5.24,-0.635 -6.647,-3.066 -6.308,-8.817 z"
     id="path13"
     inkscape:connector-curvature="0"
     style="clip-rule:evenodd;fill-rule:evenodd;fill:#ffffff" /><path
     d="m 824.92476,116.25147 c 1.466,-1.433 3.541,-0.163 5.106,-1.15 1.521,-0.318 3.295,0.507 4.553,-1.006 1.025,-1.263 0.468,-2.81 0.759,-4.205 1.962,6.86 1.712,7.256 -5.178,7.048 -1.744,-0.053 -3.657,0.739 -5.24,-0.687 z"
     id="path15"
     inkscape:connector-curvature="0"
     style="clip-rule:evenodd;fill:#ffffff;fill-rule:evenodd" /><path
     d="m 1225.4068,267.46447 c -0.545,-1.25 -2.408,-1.646 -2.192,-3.388 0.834,-0.474 1.702,-0.897 2.495,-1.432 1.091,-0.735 2.114,-1.082 2.771,0.417 0.605,1.378 0.09,1.97 -1.44,2.27 -0.658,0.129 -1.096,1.387 -1.634,2.133 z"
     id="path17"
     inkscape:connector-curvature="0"
     style="clip-rule:evenodd;fill:#ffffff;fill-rule:evenodd" /><path
     d="m 1214.3088,239.12147 c -0.776,-0.074 -1.644,0.07 -2.063,-0.858 0.45,-0.188 0.906,-0.362 1.35,-0.564 0.966,-0.441 1.449,-2.038 2.828,-1.357 0.425,0.21 0.532,1.061 0.784,1.618 -0.966,0.387 -1.932,0.774 -2.899,1.161 z"
     id="path19"
     inkscape:connector-curvature="0"
     style="clip-rule:evenodd;fill:#ffffff;fill-rule:evenodd" /><path
     d="m 190.21576,94.092471 c 0.643,0.094 1.285,0.187 1.925,0.281 -0.561,0.757 0.754,2.466 -0.795,2.43 -1.293,-0.03 -0.857,-1.728 -1.13,-2.711 z"
     id="path21"
     inkscape:connector-curvature="0"
     style="clip-rule:evenodd;fill:#ffffff;fill-rule:evenodd" /><path
     d="m 834.58376,114.09547 c -0.702,4.021 -2.709,2.141 -4.552,1.006 1.126,-1.75 3.155,-2.833 3.992,-5.061 0.187,1.351 0.373,2.703 0.56,4.055 z"
     id="path23"
     inkscape:connector-curvature="0"
     style="clip-rule:evenodd;fill:#ffffff;fill-rule:evenodd" /><path
     d="m 859.67576,349.23547 c -2.433,0.374 -3.269,-1.438 -4.333,-2.723 -1.355,-1.638 -2.259,-3.645 -3.397,-5.467 -5.458,-8.724 -9.897,-17.773 -8.946,-29.335 -3.59,3.846 -4.702,1.584 -6.731,-1.082 -2.44,-3.203 1.209,-9.203 -5.022,-10.307 -4.398,-8.23 -11.005,-15.072 -14.919,-23.6 -3.893,-8.48 -11.014,-15.448 -11.879,-25.347 -0.102,-1.152 -0.905,-1.682 -1.871,-2.104 -3.451,-1.511 -5.183,-4.626 -6.466,-7.796 -2.496,-6.161 -4.055,-12.822 -8.504,-17.945 -5.306,-6.107 -1.815,-16.632 -10.752,-20.857 -0.819,-0.388 -1.121,-1.973 -1.561,-3.044 -3.334,-8.115 -7.408,-15.864 -11.593,-23.562 -1.104,-2.029 -2.757,-3.67 -3.508,-5.979 -1.514,-4.66 -2.999,-9.354 -5.899,-13.442 -4.355,-6.139 -7.703,-12.854 -11.196,-19.504 -2.102,-4.002 -2.319,-8.562 -4.436,-12.395 -0.76,-1.375 -3.651,-2.13 -2.169,-4.11 1.402,-1.873 3.614,-3.692 6.349,-3.325 12.486,1.676 25.002,0.587 37.51,0.683 14.896,0.113 29.72,-1.089 44.573,-1.743 2.011,-0.167 4.13,0.565 6,-0.734 1.557,-1.146 2.447,-2.761 2.882,-4.244 0.072,1.003 -1.242,2.597 1.329,2.924 1.018,-1.388 0.704,-2.842 0.207,-4.307 -0.003,-11.182999 -0.463,-22.384999 1.644,-33.469999 0.232,-1.221 1.285,-3.016 -1.6,-3.049 -7.157,-0.083 -14.27,0.793 -21.498,0.223 -3.147,-0.248 -6.308,0.842 -9.055,-1.516 -0.791,-0.679 -1.472,-0.76 -1.941,0.147 -1.493,2.888 -3.993,1.957 -6.445,2.144 -3.26,0.248 -6.267,-2.049 -9.213,-1.157 -7.171,2.172 -14.381,0.735 -21.55,0.836 -8.028,0.112 -16.102,-0.111 -24.091,-0.87 -6.805,-0.646 -13.225,-3.299 -20.395,-0.298 -5.061,2.119 -10.077,-1.782 -11.675,-5.64 -3.18,-7.68 -2.921,-5.334 -8.205,-2.02 -0.53,0.333 -0.843,0.999 -1.295,1.474 -3.646,3.825 -9.502,5.315 -13.227,4.387 -4.607,-1.147 -8.793,1.37 -13.065,-0.41 -1.097,-0.457 -2.824,1.622 -2.609,2.504 1.05,4.294 -2.022,7.91 -1.519,12.354 0.281,2.483 -1.17,6.295 -2.506,9.181 -1.226,2.649 -2.146,4.042 -1.915,6.860999 0.287,3.508 0.82,6.965 -0.674,10.454 -0.806,1.88 -0.162,2.923 2.585,3.193 4.105,0.404 8.208,0.873 12.325,0.844 2.004,-0.013 3.666,0.839 3.728,2.426 0.163,4.175 3.226,6.429 5.212,9.461 2.673,4.082 4.164,8.806 6.441,13.153 8.717,16.638 16.469,33.773 25.57,50.217 3.43,6.193 5.562,13.067 9.918,18.768 -0.077,1.413 -0.44,2.885 -0.169,4.228 0.555,2.747 1.354,-0.576 2.075,-0.022 4.839,10.413 9.936,20.766 15.431,30.771 4.743,8.635 7.636,18.222 13.58,26.204 0.582,0.782 0.236,1.88 -0.152,2.861 -1.802,4.553 -0.951,6.287 3.824,6.742 2.04,0.194 2.94,0.863 3.531,2.666 3.194,9.732 11.136,17.267 12.854,27.681 0.275,1.671 2.536,1.211 3.007,3.034 -3.742,1.726 -7.221,-0.384 -10.725,-0.285 -15.047,0.422 -30.021,-1.345 -45.041,-1.916 -7.123,-0.271 -14.613,1.705 -21.197,-2.806 -3.907,2.854 -8.337,0.979 -12.497,1.228 -5.733,0.342 -11.609,0.743 -17.229,0.336 -14.733,-1.067 -29.458,-1.581 -44.212,-1.705 -1.234,-0.01 -2.959,-0.791 -3.524,0.898 -1.548,4.626 -1.309,10.064 -0.432,14.104 1.491,6.867 1.65,13.729 1.935,20.495 0.25,5.916 1.828,9.521 7.857,10.116 1.65,0.163 3.331,-0.011 4.995,0.046 10.519,0.358 21.041,-0.403 31.585,1.257 2.472,0.389 3.809,3.271 5.796,2.157 3.012,-1.688 6.26,-1.465 9.232,-1.444 5.877,0.041 12.067,-2.816 17.686,1.285 0.331,0.241 1.48,-0.013 1.726,-0.383 1.58,-2.391 3.736,-1.365 5.842,-1.283 8.074,0.318 16.031,2.024 24.225,1.302 5.585,-0.492 11.282,0.42 16.928,0.404 2.485,-0.008 3.143,3.46 5.451,2.739 9.837,-3.07 19.646,0.771 29.408,-0.126 4.868,-0.447 9.271,2.65 14.463,0.608 3.194,-1.255 4.075,1.889 4.306,5.455 0.299,4.607 6.746,4.725 8.617,8.843 0.457,1.007 2.066,0.805 3.111,-0.042 0.128,-0.104 0.259,-0.224 0.335,-0.364 2.124,-3.9 6.802,-4.597 9.609,-7.66 1.058,-1.152 2.245,-1.625 3.823,-0.4 5.038,3.908 6.936,-2.956 10.79,-3.317 0.706,-0.066 1.966,-0.87 1.928,-1.218 -0.456,-4.136 1.819,-4.452 5.19,-4.782 1.552,-0.151 3.708,-3.169 5.173,-2.546 2.835,1.206 4.219,-0.253 4.255,-2.052 0.036,-1.905 -1.211,-4.39 -4.003,-3.961 z m -80.105,-268.568999 c -0.527,1.075 -1.312,0.116 -1.69,-0.626 -0.207,-0.406 -0.316,-0.862 -0.725,-2.017 1.682,0.746 3.021,1.408 2.415,2.643 z m -49.404,48.366999 c -0.157,0.806 -0.906,1.169 -1.425,0.937 -0.379,-0.171 -0.549,-1.075 -0.576,-1.664 -0.016,-0.332 0.191,-1.02 0.94,-0.67 0.615,0.286 1.177,0.571 1.061,1.397 z m 19.801,78.925 c 1.965,0.3 2.581,1.54 2.896,3.612 -2.267,-0.586 -2.619,-2.086 -2.896,-3.612 z"
     id="path25"
     inkscape:connector-curvature="0"
     style="clip-rule:evenodd;fill-rule:evenodd;fill:#ffffff" /><path
     d="m 465.55876,314.54747 c -3.539,-2.92 -4.647,-7.195 -7.276,-10.387 -7.624,-9.258 -12.51,-20.211 -19.511,-29.799 -0.834,-1.143 0.111,-2.759 -1.368,-3.363 -4.521,-1.849 -4.644,-7.203 -8.005,-10.047 -0.759,-0.641 -2.238,-2.458 -0.414,-3.83 0.817,-0.616 0.899,-0.755 -0.124,-0.906 -4.235,-0.628 -5.169,-4.551 -6.397,-7.416 -2.79,-6.509 -8.122,-11.236 -11.082,-17.829 -2.29,-5.101 -6.601,-10.003 -10.219,-14.715 -9.743,-12.683 -16.276,-27.371 -26.143,-39.894 -1.342,-1.704 -1.479,-3.559 1.149,-3.113 3.217,0.547 6.348,-0.086 9.409,0.171 5.197,0.435 10.43,0.062 15.575,0.796 9.652,1.378 19.699,-0.427 29.026,3.593 0.345,0.149 1.005,-0.049 1.337,-0.312 2.841,-2.258 5.759,-1.035 8.471,0.034 2.991,1.179 4.465,-0.339 4.205,-2.705 -0.87,-7.876 3.983,-11.853 9.922,-14.689 3.634,-1.735 5.497,-4.744 7.953,-7.453 2.568,-2.832 1.671,-4.821 -0.355,-7.565 -3.003,-4.07 -7.745,-7.807 -8.061,-12.697 -0.279,-4.341 -2.558,-5.684 -5.118,-7.565 -0.877,-0.645 -1.627,-1.461 -2.351,-2.061 -2.859,-2.368 -2.454,-6.24 -4.602,-8.732 -8.191,-9.503 -14.687,-20.281999 -22.568,-29.987999 -9.321,-11.479 -17.464,-23.792 -26.275,-35.627 -1.219,-1.637 -1.685,-3.09 -0.286,-4.922 0.638,-0.836 2.93,-0.653 1.867,-2.533 -0.758,-1.341 -2.08,-1.683 -3.698,-1.968 -4.27,-0.752 -8.029,-2.959 -10.106,-6.805 -4.564,-8.451 -5.096,-9.02 -14.972,-10.542 -0.477,2.128 2.295,5.085 0.409,5.996 -3.724,1.799 -5.355,6.221 -9.1,7.206 -6.827,1.796 -11.483,6.896 -17.327,10.114 -3.196,1.759 -3.161,3.553 -0.898,5.701 3.737,3.548 4.004,7.578 2.225,12.087 -0.477,1.209 -0.755,2.496 -1.125,3.748 -1.537,5.2 -4.351,9.618 -5.06,15.562 -1.195,10.022 -6.026,19.578999 -8.847,29.467999 -0.534,1.871 -2.486,2.686 -2.365,4.578 0.554,8.634 -4.655,15.903 -5.699,24.163 -0.113,0.896 -0.846,2.386 -1.412,2.445 -3.268,0.343 -3.131,1.736 -1.956,4.202 0.482,1.012 0.181,2.698 -0.322,3.829 -2.074,4.67 -2.95,9.766 -4.827,14.413 -4.091,10.131 -3.313,22.134 -11.666,30.606 2.444,4.585 -1.186,8.082 -2.072,12.097 -2.672,12.102 -7.319,23.589 -11.323,35.23 -1.569,4.563 -4.188,8.153 -4.896,13.683 -0.829,6.478 -2.311,14.86 -9.424,19.321 -1.791,1.123 -2.277,3.195 -1.493,4.826 2.074,4.32 -0.038,7.841 -1.423,11.655 -1.068,2.944 -2.942,6.405 2.931,6.945 4.462,0.409 6.876,5.221 10.969,6.369 9.171,2.577 16.79,8.163 25.531,12.348 12.299,-36.158 23.84,-72.593 35.008,-109.159 1.688,0.474 2.13,1.668 2.483,2.708 1.218,3.594 3.814,6.497 5.455,9.867 1.793,3.683 5.193,7.27 7.801,10.947 2.331,3.283 5.05,6.661 6.058,10.411 1.012,3.77 3.365,5.617 5.644,8.277 4.777,5.578 8.232,12.286 12.234,18.527 3.891,6.068 7.196,12.64 11.845,18.061 4.69,5.469 5.947,12.779 11.281,17.892 3.195,3.063 5.131,7.557 7.582,11.41 2.551,4.008 5.957,7.763 7.395,12.177 1.503,4.609 5.531,6.818 7.679,10.625 0.246,0.438 0.957,0.969 1.671,0.386 3.919,-3.202 8.921,-4.309 13.235,-6.934 7.227,-4.395 14.024,-9.495 21.54,-13.421 2.277,-1.19 3.874,-4.179 2.276,-5.497 z m -104.335,-151.644 c -0.68,-0.186 -1.368,-0.728 -1.787,-1.305 -0.192,-0.265 -0.121,-1.31 1.153,-1.066 0.446,0.303 1.284,0.606 1.634,1.198 0.251,0.425 -0.23,1.383 -1,1.173 z m 8.526,-33.001 c -2.758,0.441 -3.715,-0.678 -3.509,-3.219 0.093,-1.148 0.045,-2.399 0.493,-3.414 3.381,-7.665 3.622,-16.342 8.108,-24.087999 8.388,9.355999 14.512,20.297999 21.824,30.945999 -5.53,0 -11.247,0.422 -16.862,-0.157 -3.407,-0.353 -6.725,-0.601 -10.054,-0.068 z"
     id="path27"
     inkscape:connector-curvature="0"
     style="clip-rule:evenodd;fill-rule:evenodd;fill:#ffffff" /><path
     d="m 176.08076,355.51247 c -1.493,-4.138 -1.151,-9.178 -3.095,-12.581 -4.984,-8.732 -3.482,-18.95 -8.124,-27.845 -3.696,-7.082 -4.436,-15.688 -6.643,-23.573 -5.253,-18.77 -10.521,-37.537 -15.934,-56.262 -3.329,-11.514 -3.707,-23.638 -8.575,-34.934 -3.38,-7.844 -3.834,-16.836 -6.481,-25.139 -2.547,-7.994 -4.978,-16.164 -6.078,-24.44 -1.011,-7.604 -2.802,-15.126 -4.632,-22.371 -2.561,-10.14 -4.012,-20.582 -7.401,-30.531999 -1.161,-3.408 -0.316,-7.209 -1.879,-10.683 -2.878,-6.403 -3.192,-13.496 -4.824,-20.239 -1.224,-5.059 -2.729,-10.061 -2.712,-15.604 0.012,-3.809 -1.709,-8.17 -2.469,-12.317 -0.875,-4.776 -1.28,-9.753 -8.449,-6.83 -1.013,0.413 -2.535,-0.585 -3.839,-0.682 -1.219,-0.09 -2.474,-0.795 -3.667,0.575 -2.845998,3.272 -7.027998,3.431 -10.867998,3.878 -5.201,0.606 -10.469,0.688 -15.712,0.877 -2.336,0.084 -3.412,0.828 -3.833,3.411 -1.873,11.499 -4.564,22.884 -5.979,34.431 -1.749,14.276 -6.932,27.727999 -8.966,41.951999 -1.588,11.111 -5.087,21.941 -7.461,32.954 -0.784,3.641 -3.612,6.381 -3.553,10.418 0.117,7.928 -2.381,15.462 -4.471,23.01 -0.713,2.576 -4.294,4.144 -2.683,7.647 1.469,5.333 -1.975,9.879 -2.713,14.9 -1.082,7.359 -2.878,14.616 -4.447,21.9 -0.306,1.42 -0.7450002,3.275 -2.8580002,2.365 -1.139,-0.491 -1.95,-1.913 -2.844,0.207 -0.578,1.37 -0.713,2.506 0.657,3.495 2.577,1.858 2.585,3.98 2.054,7.199 -2.361,14.295 -6.344,28.289 -7.56899997,42.82 -0.313,3.709 1.68399997,5.863 3.12199997,7.801 1.829,2.467 1.25,-2.157 2.831,-2.147 1.14,0.008 2.277,0.231 3.417,0.277 4.0400002,0.165 6.7540002,3.777 10.8970002,4.018 1.854,0.106 3.671,-1.219 5.613,0.158 3.198,2.267 7.144,2.051 10.82,2.577 1.587,0.227 3.276,-0.264 4.918,-0.428 -0.67,-4.168 4.399,-5.46 4.574,-9.146 0.035,-0.736 -0.487,-1.607 -0.981,-2.236 -0.762,-0.97 -1.49,-2.081 -1.071,-3.181 2.845,-7.477 1.637,-15.652 3.964,-23.154 3.292,-10.609 4.559,-21.63 6.812,-32.436 2.031,-9.745 3.655,-19.518 7.417,-28.796 0.481,-1.187 1.083,-2.767 0.679,-3.788 -1.106,-2.795 -0.071,-4.929 0.78,-7.523 0.807,-2.458 2.181,-4.939 2.348,-7.439 0.688,-10.266 5.09,-19.64 6.743,-29.652 0.088,-0.533 0.705,-1.256 1.194,-1.365 0.465,-0.104 1.3,0.337 1.593,0.788 0.709,1.09 1.776,2.377 1.674,3.491 -0.395,4.327 3.454998,7.894 0.978,12.955 -2.042,4.173 5.265998,6.65 4.875998,11.478 -0.053,0.649 0.148,1.318 0.216,1.979 0.551,5.343 2.145,10.49 3.052,15.738 0.927,5.365 5.838,10.367 1.995,16.332 -0.095,0.147 0.167,0.664 0.392,0.858 4.366,3.781 3.706,9.248 5.257,14.043 3.16,9.771 5.362,19.729 7.896,29.621 4.328,16.897 9.232,33.635 13.041,50.688 1.94,8.688 5.021,17.243 7.435,25.9 2.3,8.247 5.154,16.414 5.83,24.99 0.235,2.978 1.852,5.051 3.093,7.23 1.501,2.635 2.636,-1.299 4.438,-1.104 2.44,0.265 4.903,0.082 7.395,0.329 3.196,0.318 7.116,2.99 9.736,-1.517 0.395,-0.679 1.412,-0.645 2.3,-0.365 6.716,2.109 12.684,-1.611 19.016,-2.519 1.268,-0.177 2.244,-1.114 1.758,-2.462 z m -59.887,-213.006 c -0.331,1.534 -1.827,2.252 -3.255,2.602 -1.425,0.349 -2.232,-0.592 -2.101,-1.902 0.174,-1.734 1.792,-2.13 3.124,-2.719 1.057,0.346 2.555,0.522 2.232,2.019 z"
     id="path29"
     inkscape:connector-curvature="0"
     style="clip-rule:evenodd;fill-rule:evenodd;fill:#ffffff" /><path
     d="m 300.10076,139.26647 c -0.062,-2.29 -0.883,-4.55 -4.188,-4.292 -4.128,0.323 -8.337,0.832 -12.403,0.345 -3.364,-0.401 -7.126,1.992 -9.851,-0.501 -1.6,-1.465 -2.59,-1.642 -4.009,-0.723 -2.458,1.59 -5.128,0.998 -7.726,1.023 -9.324,0.092 -18.578,-1.725 -27.918,-1.134 -5.116,0.323 -10.338,-1.235 -15.152,-0.665 -8.851,1.048 -17.518,-1.646 -26.256,-0.163 -2.415,0.41 -2.888,-1.585 -3.725,-3.207 -0.421,-0.817 -1.223,-2.981 -2.249,-1.366 -1.945,3.06 -5.252,1.76 -7.72,3.106 -1.86,1.015 -4.986,1.104 -6.627,-1.219 -1.754,-2.483 -3.908,-2.74 -6.475,-2.182 -0.499,1.497 2.948,2.365 1.054,3.563 -3.725,2.354 -3.254,6.521 -4.343,9.689 -2.902,8.445 -5.064,17.172 -8.427,25.467 -2.328,5.745 -1.11,7.494 4.672,9.233 3.998,1.204 7.941,-1.626 11.068,0.174 5.915,3.404 11.834,0.296 17.583,1.225 6.563,1.06 13.101,-1.942 19.555,0.319 3.979,1.394 8.144,0.157 12.41,1.36 3.123,0.881 7.979,-0.931 12.061,-1.275 5.98,-0.506 9.718,5.169 6.778,10.342 -3.57,6.283 -6.476,13.159 -8.292,19.766 -3.208,11.67 -10.044,21.608 -13.387,33.109 -1.936,6.662 -4.1,13.344 -7.852,19.494 -3.717,6.093 -1.698,14.647 -7.74,20.056 -0.209,0.187 0.035,0.845 0.014,1.28 -0.275,5.665 -3.88,10.252 -5.829,15.254 -1.18,3.027 -1.043,5.116 0.383,6.303 4.951,4.115 9.977,8.598 15.767,11.127 6.241,2.729 11.029,7.062 16.171,11.042 1.399,1.083 2.482,1.468 3.908,1.201 1.529,-0.285 1.763,-1.553 2.044,-2.986 1.934,-9.85 6.88,-18.661 9.819,-28.218 3.925,-12.765 9.164,-25.148 14.3,-37.505 2.042,-4.912 1.644,-11.062 5.107,-14.788 4.136,-4.447 4.107,-9.851 5.448,-14.761 2.518,-9.222 8.286,-17.085 10.183,-26.472 0.354,-1.748 1.995,-1.825 3.557,-2.065 4.327,-0.666 6.796,-3.931 5.075,-7.585 -1.641,-3.483 2.601,-6.09 0.584,-9.404 -0.319,-0.524 1.383,-0.945 2.393,-1.132 5.896,-1.087 9.123,-5.665 8.823,-11.668 -0.424,-8.499 -0.859,-17.043 0.74,-25.46 0.365,-1.909 0.722,-3.871 0.672,-5.707 z m -9.86,41.661 c -0.548,-0.091 -1.283,-0.461 -1.489,-0.91 -0.412,-0.899 0.48,-0.994 1.068,-1.064 0.63,-0.074 1.275,0.015 1.562,0.755 -0.083,0.688 -0.357,1.35 -1.141,1.219 z"
     id="path31"
     inkscape:connector-curvature="0"
     style="clip-rule:evenodd;fill-rule:evenodd;fill:#ffffff" /><path
     d="m 1233.2608,166.74747 c -2.976,-5.316 -3.704,-11.967 -5.021,-18.107 -0.686,-3.206 -1.789,-3.631 -5.029,-3.349 -7.695,0.671 -15.127,3.088 -22.993,2.81 -4.188,-0.147 -8.796,0.035 -12.659,0.847 -9.205,1.934 -18.508,1.347 -27.686,2.686 -5.843,0.853 -11.911,1.283 -17.758,0.696 -6.367,-0.641 -12.092,2.108 -18.394,1.989 -6.695,-0.126 -13.538,0.375 -20.276,1.614 -4.811,0.885 -10.343,2.045 -14.608,0.49 -4.055,-1.478 -7.353,-1.776 -10.715,-0.062 -2.659,1.355 -4.799,2.618 -7.726,0.817 -0.822,-0.505 -2.437,-0.352 -3.399,0.105 -6.667,3.172 -14.049,-0.354 -19.764,2.369 -6.765,-0.265 -6.993,-0.048 -6.819,5.791 0.229,7.71 0.232,15.438 0.822,23.122 0.318,4.146 -0.785,8.201 -0.211,12.262 0.279,1.965 2.209,3.77 0.809,5.868 -0.469,0.703 -1.975,0.812 -0.669,2.044 0.851,0.802 1.586,1.423 3.003,0.846 3.506,-1.427 7.559,-1.705 10.994,-1.538 8.242,0.399 16.4,-0.883 24.443,-1.466 12.05,-0.874 24.169,-1.071 36.204,-2.386 14.544,-1.588 29.12,-2.904 43.707,-4.021 2.185,-0.167 5.274,-1.108 6.734,2.385 0.902,2.156 2.941,0.514 4.435,0.417 2.117,-0.138 0.356,-1.29 0.346,-1.953 -0.025,-1.597 0.437,-1.338 1.961,-1.365 6.156,-0.112 12.415,-0.241 18.446,-0.991 9.128,-1.136 18.342,-1.189 27.421,-2.67 2.745,-0.446 6.535,-1.708 8.15,-0.438 3.881,3.051 4.785,0.135 5.107,-2.09 1.276,-8.805 6.483,-17.183 1.145,-26.722 z m -2.533,15.156 c -0.884,-1.594 -1.041,-2.945 -0.022,-4.439 0.806,1.424 1.19,2.765 0.022,4.439 z"
     id="path33"
     inkscape:connector-curvature="0"
     style="clip-rule:evenodd;fill-rule:evenodd;fill:#ffffff" /><path
     d="m 332.90476,50.325471 c -0.571,-0.581 -1.162,-1.404 -2.07,-0.813 -5.732,3.728 -11.623,2.009 -17.517,0.604 -0.465,-0.11 -1.175,-0.335 -1.408,-0.118 -3.992,3.729 -9.251,2.165 -13.843,3.337 -0.908,0.231 -2.424,0.274 -2.878,-0.26 -3.274,-3.856 -6.423,-0.591 -9.411,0.226 -1.807,0.494 -3.651,1.183 -5.311,0.699 -6.322,-1.844 -12.589,-0.849 -18.988,-0.728 -15.295,0.29 -30.625,-0.421 -45.918,-1.184 -10.465,-0.522 -20.878,-2.2 -31.344,-2.584 -4.807,-0.177 -9.727,0.416 -14.509,-0.287 -7.288,-1.072 -14.648,-0.463 -21.974,-1.342 -3.093,-0.37 -6.628,-0.839 -9.769,-0.462 -4.284,0.513 -8.449,0.901 -12.671,0.074 -1.842,-0.36 -3.72,-0.929 -4.887,1.062 -1.143,1.948 -2.523,3.925 -1.133,6.413 2.345,4.202 2.116,9.137 2.761,13.595 0.75,5.178 1.73,10.433 2.136,15.72 0.2,2.603 1.09,5.977 4.628,5.867 4.654,-0.144 9.109,1.357 13.807,0.968 3.239,-0.27 7.748,-1.806 8.218,4.195 0.177,2.261 4.263,1.123 4.091,3.841 -0.4,6.329999 3.937,5.080999 7.6,4.892999 1.437,-0.073 2.417,0.186 3.207,1.611 0.527,0.952 1.816,0.589 2.63,-0.033 0.767,-0.584 1.365,-1.181 0.674,-2.456 -1.664,-3.071 2.021,-5.335999 1.626,-8.526999 -0.102,-0.819 3.341,-4.49 5.889,-1.575 2.346,2.683 4.373,1.879 6.825,0.695 2.305,-1.112 4.662,-1.687 6.851,0.335 0.559,0.656 1.23,0.544 1.924,0.282 7.188,0.222 14.373,0.5 21.561,0.643 4.674,0.093 9.334,0.032 11.958,5.720999 0.638,-5.410999 4.471,-6.215999 7.357,-5.257999 3.647,1.209 6.868,0.53 10.363,0.412 7.119,-0.24 14.376,-0.651 21.354,0.438 6.368,0.994 13.333,-2.115 19.169,2.602 0.197,0.16 0.963,-0.147 1.298,-0.432 4.66,-3.945 9.728,-1.72 14.714,-1.074 1.039,0.134 2.208,1.557 3.161,0.166 3.542,-5.167 8.891,-2.404 11.817,-0.909 5.343,2.73 6.009,-1.786 6.914,-3.689 2.674,-5.629 3.353,-11.946 4.668,-18.051 1.586,-7.36 0.613,-15.679 6.944,-21.584 1.071,-0.998 0.369,-2.137 -0.514,-3.033 z m -73.702,27.445 c -1.347,-0.409 -2.822,-0.455 -3.106,-2.21 -0.037,-0.229 0.648,-0.853 0.912,-0.806 1.498,0.271 2.833,0.795 2.194,3.016 z"
     id="path35"
     inkscape:connector-curvature="0"
     style="clip-rule:evenodd;fill-rule:evenodd;fill:#ffffff" /></svg>